<svg width="10" height="12" viewBox="0 0 14 12" fill="none" xmlns="http://www.w3.org/2000/svg">
<path d="M9.14286 7.48567C9.14286 6.22674 8.11607 5.19995 6.85714 5.19995C5.59821 5.19995 4.57143 6.22674 4.57143 7.48567C4.57143 8.74459 5.59821 9.77138 6.85714 9.77138C8.11607 9.77138 9.14286 8.74459 9.14286 7.48567ZM6.85714 2.62852C9.53572 2.62852 11.7143 4.80709 11.7143 7.48567C11.7143 10.1642 9.53572 12.3428 6.85714 12.3428C4.17857 12.3428 2 10.1642 2 7.48567C2 4.80709 4.17857 2.62852 6.85714 2.62852ZM13.7143 7.48567C13.7143 3.69995 10.6429 0.628522 6.85714 0.628522C3.07143 0.628522 0 3.69995 0 7.48567C0 11.2714 3.07143 14.3428 6.85714 14.3428C10.6429 14.3428 13.7143 11.2714 13.7143 7.48567Z" fill="#00A7DC"/>
</svg>